<svg xmlns="http://www.w3.org/2000/svg" width="120" height="120" viewBox="0 0 120 120">
  <defs>
    <style>
      .a {
        fill: none;
        stroke: #fff;
        stroke-linecap: round;
        stroke-miterlimit: 2.37;
        stroke-width: 1.2px;
        stroke-dasharray: 8.4 16.8 26.4 9.6;
      }

      .b {
        fill: #fff;
      }

      .c {
        fill: #5a4d47;
      }
    </style>
  </defs>
  <title>direct-prices</title>
  <circle class="a" cx="60" cy="60" r="59.4"/>
  <path class="b" d="M60,6.75h0A53.25,53.25,0,0,1,113.25,60h0A53.25,53.25,0,0,1,60,113.25h0A53.25,53.25,0,0,1,6.75,60h0A53.25,53.25,0,0,1,60,6.75Z" transform="translate(0 0)"/>
  <path class="c" d="M45.8,79.15a7,7,0,1,0-8.18,0A12.74,12.74,0,0,0,29,89.89,1,1,0,0,0,30,91H53.42a1,1,0,0,0,1-1.11A12.75,12.75,0,0,0,45.8,79.15Zm-9-5.62a5,5,0,1,1,5,5h0A5,5,0,0,1,36.76,73.53ZM31.17,89a10.76,10.76,0,0,1,10.54-8.51h0A10.74,10.74,0,0,1,52.25,89Zm36-19.9a3.71,3.71,0,0,0,.46-1.9,3.72,3.72,0,0,0,4.51-3.88,3.83,3.83,0,0,0,1.54-.11,3.72,3.72,0,0,0,2.49-4.76l.12,0a3.7,3.7,0,0,0,2.66-4.21L81.83,53l.31.8a2.78,2.78,0,0,0,2.56,1.75,2.6,2.6,0,0,0,1-.19L89.25,54a2.75,2.75,0,0,0,1.56-3.55L83.65,32A2.75,2.75,0,0,0,80.1,30.4l-3.56,1.38A2.75,2.75,0,0,0,75,35.33l.54,1.4-2,1.06c-1.08.57-2.16.18-4-.56-2.43-1-5.71-2.33-10,.31-3.1-1.82-5.75-1.2-7.9-.69-1.65.39-3,.69-4.2,0l-.08,0-2.27-1,.6-1.36a2.74,2.74,0,0,0-1.4-3.61l-3.49-1.55a2.76,2.76,0,0,0-3.61,1.4l-8,18.13a2.77,2.77,0,0,0,1.4,3.62l3.49,1.54a2.73,2.73,0,0,0,3.62-1.4l.39-.87c1.14.51,1.81.8,2.07.9.43.17.57.78.76,1.77a7.48,7.48,0,0,0,.42,1.61l-1,1.79a3.8,3.8,0,0,0,3.45,5.61,3.81,3.81,0,0,0,5.59,3.93A3.77,3.77,0,0,0,51.12,69a3.83,3.83,0,0,0,3.3.14A3.81,3.81,0,0,0,58,71.6a3.94,3.94,0,0,0,1.12-.16,3.78,3.78,0,0,0,2-1.44l1,.57a3.7,3.7,0,0,0,1.8.48,3.85,3.85,0,0,0,1-.14A3.76,3.76,0,0,0,67.16,69.1ZM77.27,33.64l3.55-1.38a.86.86,0,0,1,.27,0,.82.82,0,0,1,.3.07.76.76,0,0,1,.4.41L89,51.17a.71.71,0,0,1,0,.57.73.73,0,0,1-.4.39L85,53.51a.75.75,0,0,1-.57,0,.72.72,0,0,1-.39-.41L76.84,34.6A.76.76,0,0,1,77.27,33.64Zm-8.45,5.44c1.81.74,3.68,1.51,5.66.48l1.77-1,4.86,12.53-3,1.26a3.9,3.9,0,0,0-1-.84l-9.47-5.39c-2.45-1.4-5.1-.32-7.68.72-3.18,1.29-6,2.41-8.54-.38a33.36,33.36,0,0,0,6.42-5,16.52,16.52,0,0,1,2.36-2C63.83,37,66.37,38.08,68.82,39.08ZM35.91,51.71a.72.72,0,0,1-.41.39.71.71,0,0,1-.57,0l-3.49-1.54a.72.72,0,0,1-.39-.41.75.75,0,0,1,0-.57l8-18.13a.72.72,0,0,1,.41-.39.75.75,0,0,1,.57,0l3.49,1.55a.78.78,0,0,1,.39.41.75.75,0,0,1,0,.57Zm5-1-2-.87,5.41-12.24,2.21,1c1.92,1.06,3.79.62,5.6.2s3.59-.84,5.64.06c-.47.39-.94.82-1.4,1.28a32.07,32.07,0,0,1-6.7,5.06,1.32,1.32,0,0,0-.37,2A7,7,0,0,0,55,50.24a15.53,15.53,0,0,0,5.67-1.5C63,47.8,65,47,66.62,47.91l9.47,5.39a1.83,1.83,0,0,1,.73.78,1.74,1.74,0,0,1-1.09,2.42,1.73,1.73,0,0,1-1.3-.15c-2-1.12-4.28-2.39-6.5-3.67a1,1,0,0,0-1,1.74c2.24,1.28,4.51,2.55,6.52,3.68h0a1.73,1.73,0,0,1-.34,3.19,1.78,1.78,0,0,1-1.32-.15h0l-8.56-4.82a1,1,0,0,0-1.37.39,1,1,0,0,0,.39,1.36l7,4a1.73,1.73,0,0,1-.36,3.19,1.68,1.68,0,0,1-1.3-.14h0l-5-2.82a4,4,0,0,0-1.15-.94,3.84,3.84,0,0,0-3-.28,3.84,3.84,0,0,0-4.83-2.58,3.81,3.81,0,0,0-4.35-2.69,3.82,3.82,0,0,0-6.46-2.21A3.46,3.46,0,0,0,40.92,50.69Zm2,10.43a1.83,1.83,0,0,1-.88-1.07,1.86,1.86,0,0,1,.13-1.39l1.74-3.25A1.82,1.82,0,0,1,47.19,57L44.9,61A1.81,1.81,0,0,1,42.93,61.12Zm3.85,4.4A1.83,1.83,0,0,1,46,63.06l2.83-5a1.81,1.81,0,0,1,2-.18,1.84,1.84,0,0,1,.93,2l-2.53,4.89A1.83,1.83,0,0,1,46.78,65.52Zm5.28,1.73a1.8,1.8,0,0,1-1-1.72l2.44-4.73a1.81,1.81,0,0,1,3.05,1.65l-2.24,4.3A1.81,1.81,0,0,1,52.06,67.25Zm6.45,2.27a1.77,1.77,0,0,1-1.39-.13,1.83,1.83,0,0,1-.95-1.79l2.2-4.22a1.84,1.84,0,0,1,2.13-.31,1.83,1.83,0,0,1,.75,2.46l-1.67,3.12A1.79,1.79,0,0,1,58.51,69.52Zm6.9-1.38a1.8,1.8,0,0,1-1.07.84,1.65,1.65,0,0,1-1.27-.15l-1-.58L63,66.47A3.89,3.89,0,0,0,63.45,65l1.27.74A1.76,1.76,0,0,1,65.41,68.14ZM41.93,34.27A1.18,1.18,0,1,1,40.8,33,1.19,1.19,0,0,1,41.93,34.27ZM78.8,35.38A1.19,1.19,0,1,1,80,36.56,1.19,1.19,0,0,1,78.8,35.38Zm3.58,43.77a7,7,0,1,0-8.18,0,12.75,12.75,0,0,0-8.62,10.74,1,1,0,0,0,1,1.11H90a1,1,0,0,0,1-1.11A12.74,12.74,0,0,0,82.38,79.15Zm-9-5.62a5,5,0,1,1,5,5h0A5,5,0,0,1,73.33,73.53ZM67.75,89a10.74,10.74,0,0,1,10.54-8.51h0A10.76,10.76,0,0,1,88.83,89Z" transform="translate(0 0)"/>
</svg>
