<svg xmlns="http://www.w3.org/2000/svg" width="120" height="120" viewBox="0 0 120 120">
  <defs>
    <style>
      .a {
        fill: none;
        stroke: #fff;
        stroke-linecap: round;
        stroke-miterlimit: 2.37;
        stroke-width: 1.2px;
        stroke-dasharray: 8.4 16.8 26.4 9.6;
      }

      .b {
        fill: #fff;
      }

      .c {
        fill: #5a4d47;
      }
    </style>
  </defs>
  <title>refund</title>
  <circle class="a" cx="60" cy="60" r="59.4"/>
  <path class="b" d="M60,6.75h0A53.25,53.25,0,0,1,113.25,60h0A53.25,53.25,0,0,1,60,113.25h0A53.25,53.25,0,0,1,6.75,60h0A53.25,53.25,0,0,1,60,6.75Z" transform="translate(0 0)"/>
  <path class="c" d="M79.18,71.39,67.63,75.93a0,0,0,0,1,0,0A5.31,5.31,0,0,0,67.9,75a5.23,5.23,0,0,0,.1-1,5,5,0,0,0-5-5H56.7a7,7,0,0,1-2.84-.6L50,66.75A9.15,9.15,0,0,0,46.31,66H31a1,1,0,0,0-1,1V81a1,1,0,0,0,.94,1l1.19.06a21.59,21.59,0,0,1,10,2.25l6.34,3.54A17.47,17.47,0,0,0,64,88.48L83.2,79.83a4.69,4.69,0,0,0,2.54-2.67,4.26,4.26,0,0,0-.16-3.32,5.16,5.16,0,0,0-6.4-2.43Zm4.68,5.06A2.78,2.78,0,0,1,82.38,78L63.16,86.64a15.61,15.61,0,0,1-13.74-.56l-6.36-3.56A23.68,23.68,0,0,0,32.22,80H32V68h14.3a6.8,6.8,0,0,1,2.84.6l3.9,1.73a9,9,0,0,0,3.65.77H63a3,3,0,0,1,3,3,2.92,2.92,0,0,1-1.32,2.45,1.86,1.86,0,0,1-.19.11l-.3.16a3.05,3.05,0,0,1-1.14.23H51.79a1,1,0,0,0-1,1,1,1,0,0,0,1,1h11.3a11.77,11.77,0,0,0,4.21-.82l12.56-5a3.21,3.21,0,0,1,3.9,1.43,2.27,2.27,0,0,1,.09,1.77Z" transform="translate(0 0)"/>
  <path class="c" d="M71,68A19,19,0,0,0,87.11,38.92,1,1,0,0,0,85.42,40a17,17,0,1,1-6.13-5.83,16.53,16.53,0,0,1,2.33,1.59l-.92.31A1,1,0,0,0,81,38a1.25,1.25,0,0,0,.32,0l3-1A1,1,0,0,0,85,36V33a1,1,0,0,0-2,0v1.31A19,19,0,1,0,71,68Z" transform="translate(0 0)"/>
  <path class="c" d="M71,36A13,13,0,1,0,84,49,13,13,0,0,0,71,36Zm0,24A11,11,0,1,1,82,49,11,11,0,0,1,71,60Z" transform="translate(0 0)"/>
  <path class="c" d="M76,44a1,1,0,0,0,0-2H72V41a1,1,0,0,0-2,0v1H69a4,4,0,0,0,0,8h1v4H66a1,1,0,0,0,0,2h4v1a1,1,0,1,0,2,0V56h1a4,4,0,0,0,0-8H72V44Zm-6,4H69a2,2,0,0,1,0-4h1Zm3,2a2,2,0,0,1,0,4H72V50Z" transform="translate(0 0)"/>
</svg>
