<svg xmlns="http://www.w3.org/2000/svg" width="120" height="120" viewBox="0 0 120 120">
  <defs>
    <style>
      .a {
        fill: none;
        stroke: #fff;
        stroke-linecap: round;
        stroke-miterlimit: 2.37;
        stroke-width: 1.2px;
        stroke-dasharray: 8.4 16.8 26.4 9.6;
      }

      .b {
        fill: #fff;
      }

      .c {
        fill: #5a4d47;
      }
    </style>
  </defs>
  <title>transparency</title>
  <circle class="a" cx="60" cy="60" r="59.4"/>
  <path class="b" d="M60,6.75h0A53.25,53.25,0,0,1,113.25,60h0A53.25,53.25,0,0,1,60,113.25h0A53.25,53.25,0,0,1,6.75,60h0A53.25,53.25,0,0,1,60,6.75Z" transform="translate(0 0)"/>
  <path class="c" d="M40.41,43.26a.88.88,0,0,1,.88-.87H70.84a.88.88,0,0,1,0,1.75H41.29A.88.88,0,0,1,40.41,43.26Zm.88,6.37h13a.88.88,0,1,0,0-1.75h-13a.88.88,0,1,0,0,1.75Zm0,5.49h10a.88.88,0,1,0,0-1.75h-10a.88.88,0,1,0,0,1.75Zm0,5.49h8.59a.88.88,0,1,0,0-1.76H41.29a.88.88,0,0,0,0,1.76Zm0,5.49h9.54a.88.88,0,0,0,0-1.76H41.29a.88.88,0,1,0,0,1.76Zm11.44,3.73H41.29a.88.88,0,0,0,0,1.76H52.73a.88.88,0,0,0,0-1.76ZM41.29,38.65H70.84a.88.88,0,0,0,0-1.75H41.29a.88.88,0,1,0,0,1.75ZM91.68,86.92a3.39,3.39,0,0,1-2.41,1,3.35,3.35,0,0,1-2.4-1l-9.21-9.21v4a.87.87,0,0,1-.88.88H35.35a.87.87,0,0,1-.88-.88V26.8a.87.87,0,0,1,.88-.88H76.78a.87.87,0,0,1,.88.88V51a14.42,14.42,0,0,1,1.51,18.63L91.68,82.12A3.4,3.4,0,0,1,91.68,86.92ZM67.46,48.5A12.68,12.68,0,1,0,80.14,61.18,12.7,12.7,0,0,0,67.46,48.5ZM75.9,76,74,74.05a14.44,14.44,0,1,1,1.9-24.57V27.67H36.22V80.81H75.9Zm15,8.57a1.63,1.63,0,0,0-.48-1.16L78.05,71a15,15,0,0,1-2.49,2.14L88.11,85.68a1.63,1.63,0,0,0,1.16.48,1.61,1.61,0,0,0,1.16-.48A1.63,1.63,0,0,0,90.91,84.52ZM72.66,61.37a13.1,13.1,0,0,0-3.9-1c-2.08-.32-4.23-.66-4.92-2a1.87,1.87,0,0,1,.52-2.25c1.4-1.38,4.54-1.82,8.38.28a.87.87,0,0,0,1.19-.34.88.88,0,0,0-.34-1.2A13.22,13.22,0,0,0,69,53.33V50.92a.88.88,0,0,0-1.76,0v2.33a6.43,6.43,0,0,0-4.14,1.66,3.59,3.59,0,0,0-.84,4.33c1.09,2.09,3.8,2.51,6.2,2.88,3.39.53,4.41.94,4.19,2.49a2.92,2.92,0,0,1-1.8,2c-1,.5-4,1.34-8.75-1.54a.88.88,0,0,0-1.21.3.87.87,0,0,0,.3,1.2,15.16,15.16,0,0,0,6,2.24v2.4a.88.88,0,0,0,1.76,0V68.91a7.38,7.38,0,0,0,2.6-.66,4.66,4.66,0,0,0,2.79-3.39A3.16,3.16,0,0,0,72.66,61.37Z" transform="translate(0 0)"/>
</svg>
