<svg xmlns="http://www.w3.org/2000/svg" width="120" height="120" viewBox="0 0 120 120">
  <defs>
    <style>
      .a {
        fill: none;
        stroke: #fff;
        stroke-linecap: round;
        stroke-miterlimit: 2.37;
        stroke-width: 1.2px;
        stroke-dasharray: 8.4 16.8 26.4 9.6;
      }

      .b {
        fill: #fff;
      }

      .c {
        fill: #5a4d47;
      }
    </style>
  </defs>
  <title>price-tag</title>
  <circle class="a" cx="60" cy="60" r="59.4"/>
  <path class="b" d="M60,6.75h0A53.25,53.25,0,0,1,113.25,60h0A53.25,53.25,0,0,1,60,113.25h0A53.25,53.25,0,0,1,6.75,60h0A53.25,53.25,0,0,1,60,6.75Z" transform="translate(0 0)"/>
  <path class="c" d="M88.74,60.58a7.5,7.5,0,0,0-3.17-5.21L82,52.88l4.84-5.62a3.24,3.24,0,0,0,.77-2h0a3.24,3.24,0,0,0-.64-2L78.1,31.48a3.37,3.37,0,0,0-2.53-1.26H39.66a3.36,3.36,0,0,0-2.53,1.26L28.27,43.2a3.24,3.24,0,0,0,.13,4.06L55.21,78.4a3.15,3.15,0,0,0,4.8,0l6.3-7.31L68.5,88.35a2.13,2.13,0,0,0,.81,1.42,2.11,2.11,0,0,0,1.59.43L90,87.78a2.16,2.16,0,0,0,1.86-2.4ZM85,44.15H69.3l7.5-10.83ZM57.61,74.59,49.4,46.29H65.83Zm0-41.42,7.6,11H50ZM48,43.34l-7.6-11h15.2Zm11.69-11H74.85l-7.59,11Zm-21.23,1,7.5,10.83H30.23Zm-8,13H47.17L55.7,75.68ZM59.53,75.68l8.53-29.39H84.83l-4.61,5.36-1.76-1.22a4.27,4.27,0,0,0-5.69.72L67.11,57.7a7.58,7.58,0,0,0-1.76,5.85l.6,4.67Zm11.09,12.4-3.14-24.8a5.33,5.33,0,0,1,1.26-4.17l5.65-6.56a2.13,2.13,0,0,1,2.84-.36l7.12,4.94a5.37,5.37,0,0,1,2.26,3.72l3.15,24.8Z" transform="translate(0 0)"/>
  <path class="c" d="M76.13,61.13a3.2,3.2,0,1,0-2.37-.64A3.22,3.22,0,0,0,76.13,61.13Zm-.53-4.25a1.07,1.07,0,0,1,1.19.93,1,1,0,0,1-.53,1.06,1.06,1.06,0,0,1-1.56-1.21A1.07,1.07,0,0,1,75.6,56.88Z" transform="translate(0 0)"/>
  <path class="c" d="M81.4,73.51a6.13,6.13,0,0,0-3.78-.69c-1.73.23-3.32-.56-3.46-1.72s1.19-2.31,2.92-2.53a3.23,3.23,0,0,1,3.33,1.29,1.06,1.06,0,0,0,1.4.45,1.08,1.08,0,0,0,.53-1.37,5,5,0,0,0-4.46-2.53l-.15-1.16a1.07,1.07,0,0,0-2.12.27l.14,1.15c-2.37.7-4,2.65-3.72,4.7.3,2.35,2.92,3.95,5.86,3.58a4,4,0,0,1,2.46.42,1.63,1.63,0,0,1,.36,2.81,4.07,4.07,0,0,1-2.28,1,3.22,3.22,0,0,1-3.33-1.28,1.07,1.07,0,1,0-1.93.92,5,5,0,0,0,4.46,2.53l.14,1.16a1.08,1.08,0,0,0,1.07.94H79a1.11,1.11,0,0,0,.72-.41,1.06,1.06,0,0,0,.21-.79l-.15-1.15a6,6,0,0,0,2.44-1.39,3.75,3.75,0,0,0-.79-6.21Z" transform="translate(0 0)"/>
</svg>
