<svg width="20.000000" height="20.000000" viewBox="0 0 20 20" fill="none" xmlns="http://www.w3.org/2000/svg" xmlns:xlink="http://www.w3.org/1999/xlink">
	<desc>
			Created with Pixso.
	</desc>
	<defs/>
	<circle id="Ellipse 67" cx="10.000000" cy="10.000000" r="10.000000" fill="#FFFFFF" fill-opacity="1.000000"/>
	<path id="Vector" d="M9.2 12.58L8.12 11.5C7.73 11.1 7.09 11.1 6.7 11.5C6.31 11.89 6.31 12.52 6.7 12.91L9.5 15.7C9.89 16.09 10.52 16.09 10.91 15.7L13.7 12.91C14.09 12.52 14.09 11.89 13.7 11.5C13.31 11.1 12.68 11.1 12.29 11.5L11.2 12.58L11.2 6C11.2 5.44 10.75 5 10.2 5C9.65 5 9.2 5.44 9.2 6L9.2 12.58Z" fill="#A38668" fill-opacity="1.000000" fill-rule="evenodd"/>
</svg>
