<svg width="46.000000" height="9.000000" viewBox="0 0 46 9" fill="none" xmlns="http://www.w3.org/2000/svg" xmlns:xlink="http://www.w3.org/1999/xlink">
	<desc>
			Created with Pixso.
	</desc>
	<defs/>
	<path id="Vector" d="M2.41 4.2L4.5 2.12C4.89 1.73 4.89 1.09 4.5 0.7C4.1 0.31 3.47 0.31 3.08 0.7L0.29 3.5C-0.1 3.89 -0.1 4.52 0.29 4.91L3.08 7.7C3.47 8.09 4.1 8.09 4.5 7.7C4.89 7.31 4.89 6.68 4.5 6.29L2.41 4.2Z" fill="#FFFFFF" fill-opacity="1.000000" fill-rule="evenodd"/>
	<path id="Vector" d="M22.41 4.2L24.5 2.12C24.89 1.73 24.89 1.09 24.5 0.7C24.1 0.31 23.47 0.31 23.08 0.7L20.29 3.5C19.9 3.89 19.9 4.52 20.29 4.91L23.08 7.7C23.47 8.09 24.1 8.09 24.5 7.7C24.89 7.31 24.89 6.68 24.5 6.29L22.41 4.2Z" fill="#FFFFFF" fill-opacity="1.000000" fill-rule="evenodd"/>
	<path id="Vector" d="M42.41 4.2L44.5 2.12C44.89 1.73 44.89 1.09 44.5 0.7C44.1 0.31 43.47 0.31 43.08 0.7L40.29 3.5C39.9 3.89 39.9 4.52 40.29 4.91L43.08 7.7C43.47 8.09 44.1 8.09 44.5 7.7C44.89 7.31 44.89 6.68 44.5 6.29L42.41 4.2Z" fill="#FFFFFF" fill-opacity="1.000000" fill-rule="evenodd"/>
</svg>
