<svg width="46.000000" height="9.000000" viewBox="0 0 46 9" fill="none" xmlns="http://www.w3.org/2000/svg" xmlns:xlink="http://www.w3.org/1999/xlink">
	<desc>
			Created with Pixso.
	</desc>
	<defs/>
	<path id="Vector" d="M42.79 4.2L40.7 2.12C40.31 1.73 40.31 1.09 40.7 0.7C41.09 0.31 41.73 0.31 42.12 0.7L44.91 3.5C45.3 3.89 45.3 4.52 44.91 4.91L42.12 7.7C41.73 8.09 41.09 8.09 40.7 7.7C40.31 7.31 40.31 6.68 40.7 6.29L42.79 4.2Z" fill="#FFFFFF" fill-opacity="1.000000" fill-rule="evenodd"/>
	<path id="Vector" d="M22.79 4.2L20.7 2.12C20.31 1.73 20.31 1.09 20.7 0.7C21.09 0.31 21.73 0.31 22.12 0.7L24.91 3.5C25.3 3.89 25.3 4.52 24.91 4.91L22.12 7.7C21.73 8.09 21.09 8.09 20.7 7.7C20.31 7.31 20.31 6.68 20.7 6.29L22.79 4.2Z" fill="#FFFFFF" fill-opacity="1.000000" fill-rule="evenodd"/>
	<path id="Vector" d="M2.79 4.2L0.7 2.12C0.31 1.73 0.31 1.09 0.7 0.7C1.09 0.31 1.73 0.31 2.12 0.7L4.91 3.5C5.3 3.89 5.3 4.52 4.91 4.91L2.12 7.7C1.73 8.09 1.09 8.09 0.7 7.7C0.31 7.31 0.31 6.68 0.7 6.29L2.79 4.2Z" fill="#FFFFFF" fill-opacity="1.000000" fill-rule="evenodd"/>
</svg>
