<svg width="20.000000" height="20.000000" viewBox="0 0 20 20" fill="none" xmlns="http://www.w3.org/2000/svg" xmlns:xlink="http://www.w3.org/1999/xlink">
	<desc>
			Created with Pixso.
	</desc>
	<defs/>
	<circle id="Ellipse 67" r="10.000000" transform="matrix(1 0 0 -1 10 10)" fill="#E4CDAD" fill-opacity="1.000000"/>
	<circle id="Ellipse 67" r="9.500000" transform="matrix(1 0 0 -1 10 10)" stroke="#5A4D47" stroke-opacity="1.000000" stroke-width="1.000000"/>
	<path id="Vector" d="M9.2 11.58L8.12 10.5C7.73 10.1 7.09 10.1 6.7 10.5C6.31 10.89 6.31 11.52 6.7 11.91L9.5 14.7C9.89 15.09 10.52 15.09 10.91 14.7L13.7 11.91C14.09 11.52 14.09 10.89 13.7 10.5C13.31 10.1 12.68 10.1 12.29 10.5L11.2 11.58L11.2 5C11.2 4.44 10.75 4 10.2 4C9.65 4 9.2 4.44 9.2 5L9.2 11.58Z" fill="#5A4D47" fill-opacity="1.000000" fill-rule="evenodd"/>
</svg>
