<svg width="206.000000" height="60.000000" viewBox="0 0 206 60" fill="none" xmlns="http://www.w3.org/2000/svg" xmlns:xlink="http://www.w3.org/1999/xlink">
	<desc>
			Created with Pixso.
	</desc>
	<defs>
		<linearGradient x1="28.808668" y1="46.560799" x2="37.050438" y2="38.319031" id="paint_linear_5_232_0" gradientUnits="userSpaceOnUse">
			<stop stop-color="#ED2939"/>
			<stop offset="1.000000" stop-color="#991F29"/>
		</linearGradient>
	</defs>
	<path d="M7.77 -0.47L52.68 -0.47C56.98 -0.47 60.46 2.16 60.46 5.4L60.46 54.13C60.46 57.37 56.98 60 52.68 60L7.77 60C3.48 60 0 57.37 0 54.13L0 5.4C0 2.16 3.48 -0.47 7.77 -0.47Z" fill="#405149" fill-opacity="1.000000" fill-rule="evenodd"/>
	<path d="M33.13 51.9L17.56 51.9L17.56 36.94L30.35 49.72C31.21 50.58 32.14 51.3 33.13 51.9L33.13 51.9Z" fill="#ED2939" fill-opacity="1.000000" fill-rule="evenodd"/>
	<path d="M38.97 51.9C35.99 51.9 33.01 50.76 30.73 48.48L17.57 35.33L17.57 35.33L17.56 35.32C19.84 33.04 22.83 31.9 25.81 31.9C28.79 31.9 31.77 33.04 34.05 35.32L47.22 48.48C47.21 48.49 47.21 48.49 47.2 48.5C47.2 48.5 47.2 48.5 47.2 48.5C47.2 48.5 47.2 48.5 47.2 48.5L47.2 48.5C47.2 48.5 47.19 48.5 47.19 48.51L47.18 48.51L47.18 48.51L47.18 48.51L47.18 48.51C47.18 48.51 47.18 48.52 47.17 48.52C47.17 48.52 47.17 48.52 47.17 48.52C47.17 48.53 47.17 48.53 47.17 48.53L47.16 48.53C46.85 48.84 46.52 49.13 46.18 49.4C46.52 49.13 46.85 48.84 47.17 48.53C44.9 50.77 41.93 51.9 38.97 51.9L38.97 51.9ZM26.25 34.84C27.89 35.39 29.44 36.32 30.75 37.63L38.26 45.15L30.75 37.63C29.44 36.32 27.9 35.39 26.25 34.84ZM43.9 50.79L43.9 50.79L43.93 50.78L43.9 50.79Z" fill="url(#paint_linear_5_232_0)" fill-opacity="1.000000" fill-rule="evenodd"/>
	<path d="M17.56 19.29L17.56 30.94L28.37 30.94C34.81 30.94 40.03 25.72 40.03 19.29C40.03 12.85 34.81 7.63 28.37 7.63L17.56 7.63L17.56 19.29Z" fill="#ED2939" fill-opacity="1.000000" fill-rule="evenodd"/>
	<path d="M30.75 37.63L38.26 45.15L43.9 50.79C44.7 50.42 45.47 49.96 46.18 49.4C46.18 49.39 46.19 49.39 46.2 49.38C46.53 49.12 46.85 48.84 47.16 48.53L47.17 48.53L47.17 48.53L47.17 48.52C47.17 48.52 47.17 48.52 47.17 48.52C47.17 48.52 47.18 48.52 47.18 48.52C47.18 48.52 47.18 48.52 47.18 48.51C47.18 48.51 47.18 48.51 47.18 48.51C47.18 48.51 47.18 48.51 47.18 48.51C47.18 48.51 47.18 48.51 47.18 48.51C47.19 48.51 47.19 48.51 47.19 48.51C47.19 48.51 47.19 48.51 47.19 48.51C47.19 48.51 47.19 48.5 47.19 48.5C47.19 48.5 47.2 48.5 47.2 48.5C47.2 48.5 47.2 48.5 47.2 48.5C47.2 48.5 47.2 48.5 47.2 48.5C47.2 48.5 47.2 48.5 47.2 48.5C47.2 48.49 47.2 48.49 47.21 48.49C47.21 48.49 47.21 48.49 47.21 48.49C47.21 48.49 47.21 48.48 47.21 48.48C47.21 48.48 47.21 48.48 47.22 48.48L34.05 35.32C31.77 33.04 28.79 31.9 25.81 31.9C25.41 31.9 25 31.92 24.6 31.96C22.04 32.23 19.53 33.35 17.56 35.32L17.57 35.33L17.57 35.33C19.14 34.59 20.83 34.23 22.52 34.23C23.78 34.23 25.04 34.43 26.25 34.84C27.9 35.39 29.44 36.32 30.75 37.63L30.75 37.63Z" fill="#ED2939" fill-opacity="1.000000" fill-rule="evenodd"/>
	<path d="M124.62 43.73Q126.39 45.2 129.39 45.2Q132.39 45.2 134.17 43.73Q134.44 43.51 134.68 43.25Q134.74 43.19 134.79 43.12Q136.51 41.17 136.51 37.7L136.51 22.01Q136.51 18.53 134.79 16.59Q134.73 16.53 134.68 16.47Q134.43 16.2 134.14 15.96Q132.37 14.5 129.39 14.5Q126.41 14.5 124.64 15.96Q124.35 16.2 124.1 16.47Q124.05 16.53 124 16.59Q122.27 18.53 122.27 22.01L122.27 37.7Q122.27 41.17 123.99 43.12Q124.05 43.19 124.1 43.25Q124.34 43.51 124.62 43.73ZM141.64 43.76Q143.36 45.2 146.28 45.2Q149.18 45.2 150.9 43.78Q151.17 43.55 151.42 43.29Q151.45 43.25 151.48 43.22Q153.18 41.3 153.18 37.86L153.18 33.65L148.75 33.65L148.75 38.21Q148.75 39.78 147.97 40.44Q147.4 40.94 146.41 40.94Q145.41 40.94 144.84 40.44Q144.06 39.78 144.06 38.21L144.06 21.54Q144.06 19.91 144.87 19.24Q145.43 18.76 146.41 18.76Q147.38 18.76 147.95 19.24Q148.75 19.91 148.75 21.54L148.75 24.99L153.18 24.99L153.18 21.83Q153.18 18.4 151.48 16.49Q151.45 16.45 151.42 16.42Q151.17 16.15 150.9 15.93Q149.18 14.5 146.28 14.5Q143.36 14.5 141.64 15.94Q141.38 16.16 141.14 16.42Q141.11 16.45 141.08 16.49Q139.37 18.4 139.37 21.83L139.37 37.86Q139.37 41.3 141.07 43.22Q141.11 43.25 141.14 43.29Q141.38 43.54 141.64 43.76ZM82.4 14.93L75.45 14.93L75.45 44.78L80.13 44.78L80.13 31.98L81.76 31.98Q83.36 31.98 84.02 32.77Q84.03 32.78 84.04 32.79Q84.71 33.61 84.71 35.65L84.71 41.11Q84.71 42.77 84.79 43.41Q84.87 44.05 85.13 44.78L89.9 44.78Q89.57 44.01 89.47 43.23Q89.39 42.43 89.39 41.15L89.39 35.91Q89.39 33.26 88.68 31.69Q88.36 30.97 87.83 30.47Q87.2 29.87 86.28 29.6L86.28 29.51Q87.03 29.21 87.61 28.7Q89.35 27.13 89.35 23.62L89.35 21.79Q89.35 18.29 87.68 16.61Q86.03 14.93 82.4 14.93ZM105.43 14.93L92.64 14.93L92.64 44.78L105.43 44.78L105.43 40.51L97.32 40.51L97.32 31.35L103.76 31.35L103.76 27.08L97.32 27.08L97.32 19.19L105.43 19.19L105.43 14.93ZM112.8 14.93L108.12 14.93L108.12 44.78L120.53 44.78L120.53 40.51L112.8 40.51L112.8 14.93ZM165.98 14.93L159.63 14.93L154.77 44.78L159.12 44.78L159.97 38.94L165.3 38.94L165.3 38.85L166.15 44.78L170.84 44.78L165.98 14.93ZM178.99 14.93L173.1 14.93L173.1 44.78L177.28 44.78L177.28 22.99L177.37 22.99L182.99 44.78L187.81 44.78L187.81 14.93L183.64 14.93L183.64 32.79L183.55 32.79L178.99 14.93ZM190.07 19.19L194.98 19.19L194.98 44.78L199.67 44.78L199.67 19.19L204.58 19.19L204.58 14.93L190.07 14.93L190.07 19.19ZM130.97 40.45Q130.38 40.94 129.39 40.94Q128.41 40.94 127.82 40.45Q126.97 39.74 126.97 38L126.97 21.71Q126.97 19.95 127.83 19.24Q128.41 18.76 129.39 18.76Q130.38 18.76 130.97 19.25Q131.83 19.96 131.83 21.71L131.83 38Q131.83 39.74 130.97 40.45ZM83.91 27.04Q83.22 27.72 81.84 27.72L80.13 27.72L80.13 19.19L82.27 19.19Q83.32 19.19 83.89 19.71Q83.99 19.8 84.08 19.92Q84.66 20.64 84.66 22.26L84.66 24.56Q84.66 26.27 83.96 26.99Q83.94 27.02 83.91 27.04ZM162.66 20.13L164.75 34.89L160.52 34.89L162.57 20.13L162.66 20.13Z" fill="#405149" fill-opacity="1.000000" fill-rule="evenodd"/>
</svg>
