<svg width="60.000000" height="60.000000" viewBox="0 0 60 60" fill="none" xmlns="http://www.w3.org/2000/svg" xmlns:xlink="http://www.w3.org/1999/xlink">
	<desc>
			Created with Pixso.
	</desc>
	<defs/>
	<circle id="Ellipse 1" cx="30.000000" cy="30.000000" r="29.500000" stroke="#FFFFFF" stroke-opacity="1.000000" stroke-width="1.000000"/>
	<path id="Rectangle 86 (Stroke)" d="M23 22C23 20.34 24.34 19 26 19L34 19C35.65 19 37 20.34 37 22L37 38C37 39.65 35.65 41 34 41L26 41C24.34 41 23 39.65 23 38L23 22ZM26 21C25.44 21 25 21.44 25 22L25 38C25 38.55 25.44 39 26 39L34 39C34.55 39 35 38.55 35 38L35 22C35 21.44 34.55 21 34 21L26 21Z" fill="#FFFFFF" fill-opacity="1.000000" fill-rule="evenodd"/>
	<path id="Vector 241 (Stroke)" d="M31.5 38L28.5 38L28.5 36L31.5 36L31.5 38Z" fill="#FFFFFF" fill-opacity="1.000000" fill-rule="evenodd"/>
	<path id="Rectangle 87 (Stroke)" d="M26 20C26 19.44 26.44 19 27 19L33 19C33.55 19 34 19.44 34 20L34 20.5C34 22.15 32.65 23.5 31 23.5L29 23.5C27.34 23.5 26 22.15 26 20.5L26 20ZM28.13 21C28.3 21.29 28.62 21.5 29 21.5L31 21.5C31.37 21.5 31.69 21.29 31.86 21L28.13 21Z" fill="#FFFFFF" fill-opacity="1.000000" fill-rule="evenodd"/>
</svg>
