<svg width="50.000000" height="40.000000" viewBox="0 0 50 40" fill="none" xmlns="http://www.w3.org/2000/svg" xmlns:xlink="http://www.w3.org/1999/xlink">
	<desc>
			Created with Pixso.
	</desc>
	<defs>
		<linearGradient x1="24.937729" y1="1.000000" x2="24.937729" y2="38.000000" id="paint_linear_357_217_0" gradientUnits="userSpaceOnUse">
			<stop stop-color="#5A4D47"/>
			<stop offset="1.000000" stop-color="#D8BFB4"/>
		</linearGradient>
		<linearGradient x1="24.937729" y1="1.000000" x2="24.937729" y2="38.000000" id="paint_linear_357_217_1" gradientUnits="userSpaceOnUse">
			<stop stop-color="#FEA700"/>
			<stop offset="1.000000" stop-color="#F7E651"/>
		</linearGradient>
	</defs>
	<path id="Vector" d="M24.93 15.8C11.99 15.8 1.5 12.48 1.5 8.39C1.5 4.31 11.99 1 24.93 1C37.87 1 48.37 4.31 48.37 8.39C48.37 12.48 37.87 15.8 24.93 15.8ZM48.37 8.39L48.37 15.8C48.37 19.88 37.87 23.2 24.93 23.2C11.99 23.2 1.5 19.88 1.5 15.8L1.5 8.39M24.93 15.8L24.93 23.2M5.2 13.33L5.2 19.5M13.83 15.8L13.83 21.96M36.03 15.8L36.03 21.96M44.67 13.33L44.67 19.5M7.67 20.73L7.67 26.89M16.3 23.2L16.3 29.36M27.4 23.2L27.4 30.6M38.5 23.2L38.5 29.36M47.13 19.5L47.13 25.66M5.2 28.13L5.2 34.3M13.83 30.6L13.83 36.76M24.93 30.6L24.93 38M1.5 15.8L1.5 23.2C1.5 27.28 11.99 30.6 24.93 30.6C37.87 30.6 48.37 27.28 48.37 23.2L48.37 15.8M1.5 23.2L1.5 30.6C1.5 34.68 11.99 38 24.93 38C37.87 38 48.37 34.68 48.37 30.6L48.37 23.2M36.03 30.6L36.03 36.76M44.67 28.13L44.67 34.3" stroke="#000000" stroke-opacity="1.000000" stroke-width="3.083333"/>
	<path id="Vector" d="M24.93 15.8C11.99 15.8 1.5 12.48 1.5 8.39C1.5 4.31 11.99 1 24.93 1C37.87 1 48.37 4.31 48.37 8.39C48.37 12.48 37.87 15.8 24.93 15.8ZM48.37 8.39L48.37 15.8C48.37 19.88 37.87 23.2 24.93 23.2C11.99 23.2 1.5 19.88 1.5 15.8L1.5 8.39M24.93 15.8L24.93 23.2M5.2 13.33L5.2 19.5M13.83 15.8L13.83 21.96M36.03 15.8L36.03 21.96M44.67 13.33L44.67 19.5M7.67 20.73L7.67 26.89M16.3 23.2L16.3 29.36M27.4 23.2L27.4 30.6M38.5 23.2L38.5 29.36M47.13 19.5L47.13 25.66M5.2 28.13L5.2 34.3M13.83 30.6L13.83 36.76M24.93 30.6L24.93 38M1.5 15.8L1.5 23.2C1.5 27.28 11.99 30.6 24.93 30.6C37.87 30.6 48.37 27.28 48.37 23.2L48.37 15.8M1.5 23.2L1.5 30.6C1.5 34.68 11.99 38 24.93 38C37.87 38 48.37 34.68 48.37 30.6L48.37 23.2M36.03 30.6L36.03 36.76M44.67 28.13L44.67 34.3" stroke="url(#paint_linear_357_217_0)" stroke-opacity="1.000000" stroke-width="3.083333"/>
	<path id="Vector" d="M24.93 15.8C11.99 15.8 1.5 12.48 1.5 8.39C1.5 4.31 11.99 1 24.93 1C37.87 1 48.37 4.31 48.37 8.39C48.37 12.48 37.87 15.8 24.93 15.8ZM48.37 8.39L48.37 15.8C48.37 19.88 37.87 23.2 24.93 23.2C11.99 23.2 1.5 19.88 1.5 15.8L1.5 8.39M24.93 15.8L24.93 23.2M5.2 13.33L5.2 19.5M13.83 15.8L13.83 21.96M36.03 15.8L36.03 21.96M44.67 13.33L44.67 19.5M7.67 20.73L7.67 26.89M16.3 23.2L16.3 29.36M27.4 23.2L27.4 30.6M38.5 23.2L38.5 29.36M47.13 19.5L47.13 25.66M5.2 28.13L5.2 34.3M13.83 30.6L13.83 36.76M24.93 30.6L24.93 38M1.5 15.8L1.5 23.2C1.5 27.28 11.99 30.6 24.93 30.6C37.87 30.6 48.37 27.28 48.37 23.2L48.37 15.8M1.5 23.2L1.5 30.6C1.5 34.68 11.99 38 24.93 38C37.87 38 48.37 34.68 48.37 30.6L48.37 23.2M36.03 30.6L36.03 36.76M44.67 28.13L44.67 34.3" stroke="url(#paint_linear_357_217_1)" stroke-opacity="1.000000" stroke-width="3.083333"/>
	<path id="Vector" d="M24.93 15.8C11.99 15.8 1.5 12.48 1.5 8.39C1.5 4.31 11.99 1 24.93 1C37.87 1 48.37 4.31 48.37 8.39C48.37 12.48 37.87 15.8 24.93 15.8ZM48.37 8.39L48.37 15.8C48.37 19.88 37.87 23.2 24.93 23.2C11.99 23.2 1.5 19.88 1.5 15.8L1.5 8.39M24.93 15.8L24.93 23.2M5.2 13.33L5.2 19.5M13.83 15.8L13.83 21.96M36.03 15.8L36.03 21.96M44.67 13.33L44.67 19.5M7.67 20.73L7.67 26.89M16.3 23.2L16.3 29.36M27.4 23.2L27.4 30.6M38.5 23.2L38.5 29.36M47.13 19.5L47.13 25.66M5.2 28.13L5.2 34.3M13.83 30.6L13.83 36.76M24.93 30.6L24.93 38M1.5 15.8L1.5 23.2C1.5 27.28 11.99 30.6 24.93 30.6C37.87 30.6 48.37 27.28 48.37 23.2L48.37 15.8M1.5 23.2L1.5 30.6C1.5 34.68 11.99 38 24.93 38C37.87 38 48.37 34.68 48.37 30.6L48.37 23.2M36.03 30.6L36.03 36.76M44.67 28.13L44.67 34.3" stroke="#5A4D47" stroke-opacity="1.000000" stroke-width="3.083333"/>
</svg>
