<svg width="39.000000" height="43.000000" viewBox="0 0 39 43" fill="none" xmlns="http://www.w3.org/2000/svg" xmlns:xlink="http://www.w3.org/1999/xlink">
	<desc>
			Created with Pixso.
	</desc>
	<defs>
		<linearGradient x1="18.999950" y1="1.000000" x2="18.999950" y2="41.000000" id="paint_linear_357_229_0" gradientUnits="userSpaceOnUse">
			<stop stop-color="#5A4D47"/>
			<stop offset="1.000000" stop-color="#D8BFB4"/>
		</linearGradient>
		<linearGradient x1="18.999950" y1="1.000000" x2="18.999950" y2="41.000000" id="paint_linear_357_229_1" gradientUnits="userSpaceOnUse">
			<stop stop-color="#FEA700"/>
			<stop offset="1.000000" stop-color="#F7E651"/>
		</linearGradient>
	</defs>
	<path id="Vector" d="M26.22 16.8L18.73 26.13C17.9 27.16 16.36 27.25 15.42 26.31L12.33 23.22M36.77 8.76C36.77 8.61 36.7 8.47 36.58 8.38C29.17 3.23 19.8 1 19 1C18.19 1 8.82 3.23 1.41 8.38C1.29 8.47 1.22 8.61 1.22 8.76C1.31 33.69 17.42 41 19 41C20.57 41 36.68 33.69 36.77 8.76Z" stroke="#000000" stroke-opacity="1.000000" stroke-width="2.777778" stroke-linecap="round"/>
	<path id="Vector" d="M26.22 16.8L18.73 26.13C17.9 27.16 16.36 27.25 15.42 26.31L12.33 23.22M36.77 8.76C36.77 8.61 36.7 8.47 36.58 8.38C29.17 3.23 19.8 1 19 1C18.19 1 8.82 3.23 1.41 8.38C1.29 8.47 1.22 8.61 1.22 8.76C1.31 33.69 17.42 41 19 41C20.57 41 36.68 33.69 36.77 8.76Z" stroke="url(#paint_linear_357_229_0)" stroke-opacity="1.000000" stroke-width="2.777778" stroke-linecap="round"/>
	<path id="Vector" d="M26.22 16.8L18.73 26.13C17.9 27.16 16.36 27.25 15.42 26.31L12.33 23.22M36.77 8.76C36.77 8.61 36.7 8.47 36.58 8.38C29.17 3.23 19.8 1 19 1C18.19 1 8.82 3.23 1.41 8.38C1.29 8.47 1.22 8.61 1.22 8.76C1.31 33.69 17.42 41 19 41C20.57 41 36.68 33.69 36.77 8.76Z" stroke="url(#paint_linear_357_229_1)" stroke-opacity="1.000000" stroke-width="2.777778" stroke-linecap="round"/>
	<path id="Vector" d="M26.22 16.8L18.73 26.13C17.9 27.16 16.36 27.25 15.42 26.31L12.33 23.22M36.77 8.76C36.77 8.61 36.7 8.47 36.58 8.38C29.17 3.23 19.8 1 19 1C18.19 1 8.82 3.23 1.41 8.38C1.29 8.47 1.22 8.61 1.22 8.76C1.31 33.69 17.42 41 19 41C20.57 41 36.68 33.69 36.77 8.76Z" stroke="#5A4D47" stroke-opacity="1.000000" stroke-width="2.777778" stroke-linecap="round"/>
</svg>
