<svg width="50.000000" height="35.000000" viewBox="0 0 50 35" fill="none" xmlns="http://www.w3.org/2000/svg" xmlns:xlink="http://www.w3.org/1999/xlink">
	<desc>
			Created with Pixso.
	</desc>
	<defs>
		<linearGradient x1="24.625002" y1="1.000000" x2="24.625002" y2="32.500000" id="paint_linear_357_211_0" gradientUnits="userSpaceOnUse">
			<stop stop-color="#5A4D47"/>
			<stop offset="1.000000" stop-color="#D8BFB4"/>
		</linearGradient>
		<linearGradient x1="24.625002" y1="1.000000" x2="24.625002" y2="32.500000" id="paint_linear_357_211_1" gradientUnits="userSpaceOnUse">
			<stop stop-color="#FEA700"/>
			<stop offset="1.000000" stop-color="#F7E651"/>
		</linearGradient>
	</defs>
	<path id="Vector" d="M1 7.56L48.25 7.56M1 12.81L48.25 12.81M7.56 20.68L25.93 20.68M7.56 25.93L18.06 25.93M43 1C45.89 1 48.25 3.35 48.25 6.25L48.25 27.25C48.25 30.14 45.89 32.5 43 32.5L6.25 32.5C3.35 32.5 1 30.14 1 27.25L1 6.25C1 3.35 3.35 1 6.25 1L43 1ZM40.37 25.93C39.65 25.93 39.06 25.34 39.06 24.62C39.06 23.9 39.65 23.31 40.37 23.31C41.09 23.31 41.68 23.9 41.68 24.62C41.68 25.34 41.09 25.93 40.37 25.93Z" stroke="#000000" stroke-opacity="1.000000" stroke-width="3.281250"/>
	<path id="Vector" d="M1 7.56L48.25 7.56M1 12.81L48.25 12.81M7.56 20.68L25.93 20.68M7.56 25.93L18.06 25.93M43 1C45.89 1 48.25 3.35 48.25 6.25L48.25 27.25C48.25 30.14 45.89 32.5 43 32.5L6.25 32.5C3.35 32.5 1 30.14 1 27.25L1 6.25C1 3.35 3.35 1 6.25 1L43 1ZM40.37 25.93C39.65 25.93 39.06 25.34 39.06 24.62C39.06 23.9 39.65 23.31 40.37 23.31C41.09 23.31 41.68 23.9 41.68 24.62C41.68 25.34 41.09 25.93 40.37 25.93Z" stroke="url(#paint_linear_357_211_0)" stroke-opacity="1.000000" stroke-width="3.281250"/>
	<path id="Vector" d="M1 7.56L48.25 7.56M1 12.81L48.25 12.81M7.56 20.68L25.93 20.68M7.56 25.93L18.06 25.93M43 1C45.89 1 48.25 3.35 48.25 6.25L48.25 27.25C48.25 30.14 45.89 32.5 43 32.5L6.25 32.5C3.35 32.5 1 30.14 1 27.25L1 6.25C1 3.35 3.35 1 6.25 1L43 1ZM40.37 25.93C39.65 25.93 39.06 25.34 39.06 24.62C39.06 23.9 39.65 23.31 40.37 23.31C41.09 23.31 41.68 23.9 41.68 24.62C41.68 25.34 41.09 25.93 40.37 25.93Z" stroke="url(#paint_linear_357_211_1)" stroke-opacity="1.000000" stroke-width="3.281250"/>
	<path id="Vector" d="M1 7.56L48.25 7.56M1 12.81L48.25 12.81M7.56 20.68L25.93 20.68M7.56 25.93L18.06 25.93M43 1C45.89 1 48.25 3.35 48.25 6.25L48.25 27.25C48.25 30.14 45.89 32.5 43 32.5L6.25 32.5C3.35 32.5 1 30.14 1 27.25L1 6.25C1 3.35 3.35 1 6.25 1L43 1ZM40.37 25.93C39.65 25.93 39.06 25.34 39.06 24.62C39.06 23.9 39.65 23.31 40.37 23.31C41.09 23.31 41.68 23.9 41.68 24.62C41.68 25.34 41.09 25.93 40.37 25.93Z" stroke="#5A4D47" stroke-opacity="1.000000" stroke-width="3.281250"/>
</svg>
