<svg width="53.000000" height="43.000000" viewBox="0 0 53 43" fill="none" xmlns="http://www.w3.org/2000/svg" xmlns:xlink="http://www.w3.org/1999/xlink">
	<desc>
			Created with Pixso.
	</desc>
	<defs>
		<linearGradient x1="25.937515" y1="1.000000" x2="25.937515" y2="41.000000" id="paint_linear_357_226_0" gradientUnits="userSpaceOnUse">
			<stop stop-color="#FEA700"/>
			<stop offset="1.000000" stop-color="#F7E651"/>
		</linearGradient>
	</defs>
	<path id="Vector" d="M45.29 19.06C48.14 19.06 50.45 21.37 50.45 24.22L50.45 34.54L47.38 34.54L42.71 34.54L9.16 34.54L4.48 34.54L1.42 34.54L1.42 24.22C1.42 21.37 3.73 19.06 6.58 19.06L45.29 19.06ZM6.58 19.06L11.36 4.54C12.06 2.42 14.04 1 16.27 1L35.6 1C37.83 1 39.8 2.42 40.5 4.54L45.29 19.06M47.38 34.54L47.38 38.66C47.38 39.95 46.34 41 45.05 41C43.75 41 42.71 39.95 42.71 38.66L42.71 34.54M4.48 34.54L4.48 38.66C4.48 39.95 5.53 41 6.82 41C8.11 41 9.16 39.95 9.16 38.66L9.16 34.54M11.74 28.09C11.03 28.09 10.45 27.51 10.45 26.8C10.45 26.09 11.03 25.51 11.74 25.51C12.45 25.51 13.03 26.09 13.03 26.8C13.03 27.51 12.45 28.09 11.74 28.09ZM40.13 28.09C39.41 28.09 38.84 27.51 38.84 26.8C38.84 26.09 39.41 25.51 40.13 25.51C40.84 25.51 41.42 26.09 41.42 26.8C41.42 27.51 40.84 28.09 40.13 28.09Z" stroke="#5A4D47" stroke-opacity="1.000000" stroke-width="3.225806"/>
	<path id="Vector" d="M45.29 19.06C48.14 19.06 50.45 21.37 50.45 24.22L50.45 34.54L47.38 34.54L42.71 34.54L9.16 34.54L4.48 34.54L1.42 34.54L1.42 24.22C1.42 21.37 3.73 19.06 6.58 19.06L45.29 19.06ZM6.58 19.06L11.36 4.54C12.06 2.42 14.04 1 16.27 1L35.6 1C37.83 1 39.8 2.42 40.5 4.54L45.29 19.06M47.38 34.54L47.38 38.66C47.38 39.95 46.34 41 45.05 41C43.75 41 42.71 39.95 42.71 38.66L42.71 34.54M4.48 34.54L4.48 38.66C4.48 39.95 5.53 41 6.82 41C8.11 41 9.16 39.95 9.16 38.66L9.16 34.54M11.74 28.09C11.03 28.09 10.45 27.51 10.45 26.8C10.45 26.09 11.03 25.51 11.74 25.51C12.45 25.51 13.03 26.09 13.03 26.8C13.03 27.51 12.45 28.09 11.74 28.09ZM40.13 28.09C39.41 28.09 38.84 27.51 38.84 26.8C38.84 26.09 39.41 25.51 40.13 25.51C40.84 25.51 41.42 26.09 41.42 26.8C41.42 27.51 40.84 28.09 40.13 28.09Z" stroke="url(#paint_linear_357_226_0)" stroke-opacity="1.000000" stroke-width="3.225806"/>
	<path id="Vector" d="M45.29 19.06C48.14 19.06 50.45 21.37 50.45 24.22L50.45 34.54L47.38 34.54L42.71 34.54L9.16 34.54L4.48 34.54L1.42 34.54L1.42 24.22C1.42 21.37 3.73 19.06 6.58 19.06L45.29 19.06ZM6.58 19.06L11.36 4.54C12.06 2.42 14.04 1 16.27 1L35.6 1C37.83 1 39.8 2.42 40.5 4.54L45.29 19.06M47.38 34.54L47.38 38.66C47.38 39.95 46.34 41 45.05 41C43.75 41 42.71 39.95 42.71 38.66L42.71 34.54M4.48 34.54L4.48 38.66C4.48 39.95 5.53 41 6.82 41C8.11 41 9.16 39.95 9.16 38.66L9.16 34.54M11.74 28.09C11.03 28.09 10.45 27.51 10.45 26.8C10.45 26.09 11.03 25.51 11.74 25.51C12.45 25.51 13.03 26.09 13.03 26.8C13.03 27.51 12.45 28.09 11.74 28.09ZM40.13 28.09C39.41 28.09 38.84 27.51 38.84 26.8C38.84 26.09 39.41 25.51 40.13 25.51C40.84 25.51 41.42 26.09 41.42 26.8C41.42 27.51 40.84 28.09 40.13 28.09Z" stroke="#5A4D47" stroke-opacity="1.000000" stroke-width="3.225806"/>
</svg>
