<svg width="35.000000" height="41.000000" viewBox="0 0 35 41" fill="none" xmlns="http://www.w3.org/2000/svg" xmlns:xlink="http://www.w3.org/1999/xlink">
	<desc>
			Created with Pixso.
	</desc>
	<defs/>
	<path id="Vector" d="M17 20L27.44 25.87C30.87 27.8 33 31.43 33 35.36C33 37.37 31.37 39 29.36 39L4.63 39C2.62 39 1 37.37 1 35.36C1 31.43 3.12 27.8 6.55 25.87L17 20L27.44 14.12C30.87 12.19 33 8.56 33 4.63C33 2.62 31.37 1 29.36 1L4.63 1C2.62 1 1 2.62 1 4.63C1 8.56 3.12 12.19 6.55 14.12L9 15.5" stroke="#5A4D47" stroke-opacity="1.000000" stroke-width="2.500000"/>
</svg>
