<svg width="45.000000" height="39.000000" viewBox="0 0 45 39" fill="none" xmlns="http://www.w3.org/2000/svg" xmlns:xlink="http://www.w3.org/1999/xlink">
	<desc>
			Created with Pixso.
	</desc>
	<defs>
		<linearGradient x1="21.964500" y1="1.000000" x2="21.964500" y2="37.281517" id="paint_linear_357_223_0" gradientUnits="userSpaceOnUse">
			<stop stop-color="#5A4D47"/>
			<stop offset="1.000000" stop-color="#D8BFB4"/>
		</linearGradient>
		<linearGradient x1="21.964500" y1="1.000000" x2="21.964500" y2="37.281517" id="paint_linear_357_223_1" gradientUnits="userSpaceOnUse">
			<stop stop-color="#FEA700"/>
			<stop offset="1.000000" stop-color="#F7E651"/>
		</linearGradient>
	</defs>
	<path id="Vector" d="M37.67 13.39L37.67 27.18C37.67 28.45 37.07 29.66 36.04 30.42C28.43 36.05 18.04 36.05 10.43 30.42C9.4 29.66 8.8 28.45 8.8 27.18L8.8 14.31M27.17 8.4L41.07 12.65C42.17 12.98 42.92 14 42.92 15.16L42.92 29.03M42.92 33.84L42.92 37.28M41.1 12.19C43.44 11.37 43.44 8.06 41.1 7.24L24.53 1.44C22.84 0.85 21.01 0.85 19.32 1.44L2.75 7.24C0.41 8.06 0.41 11.37 2.75 12.19L19.32 17.99C21.01 18.58 22.84 18.58 24.53 17.99L41.1 12.19Z" stroke="#000000" stroke-opacity="1.000000" stroke-width="3.281250"/>
	<path id="Vector" d="M37.67 13.39L37.67 27.18C37.67 28.45 37.07 29.66 36.04 30.42C28.43 36.05 18.04 36.05 10.43 30.42C9.4 29.66 8.8 28.45 8.8 27.18L8.8 14.31M27.17 8.4L41.07 12.65C42.17 12.98 42.92 14 42.92 15.16L42.92 29.03M42.92 33.84L42.92 37.28M41.1 12.19C43.44 11.37 43.44 8.06 41.1 7.24L24.53 1.44C22.84 0.85 21.01 0.85 19.32 1.44L2.75 7.24C0.41 8.06 0.41 11.37 2.75 12.19L19.32 17.99C21.01 18.58 22.84 18.58 24.53 17.99L41.1 12.19Z" stroke="url(#paint_linear_357_223_0)" stroke-opacity="1.000000" stroke-width="3.281250"/>
	<path id="Vector" d="M37.67 13.39L37.67 27.18C37.67 28.45 37.07 29.66 36.04 30.42C28.43 36.05 18.04 36.05 10.43 30.42C9.4 29.66 8.8 28.45 8.8 27.18L8.8 14.31M27.17 8.4L41.07 12.65C42.17 12.98 42.92 14 42.92 15.16L42.92 29.03M42.92 33.84L42.92 37.28M41.1 12.19C43.44 11.37 43.44 8.06 41.1 7.24L24.53 1.44C22.84 0.85 21.01 0.85 19.32 1.44L2.75 7.24C0.41 8.06 0.41 11.37 2.75 12.19L19.32 17.99C21.01 18.58 22.84 18.58 24.53 17.99L41.1 12.19Z" stroke="url(#paint_linear_357_223_1)" stroke-opacity="1.000000" stroke-width="3.281250"/>
	<path id="Vector" d="M37.67 13.39L37.67 27.18C37.67 28.45 37.07 29.66 36.04 30.42C28.43 36.05 18.04 36.05 10.43 30.42C9.4 29.66 8.8 28.45 8.8 27.18L8.8 14.31M27.17 8.4L41.07 12.65C42.17 12.98 42.92 14 42.92 15.16L42.92 29.03M42.92 33.84L42.92 37.28M41.1 12.19C43.44 11.37 43.44 8.06 41.1 7.24L24.53 1.44C22.84 0.85 21.01 0.85 19.32 1.44L2.75 7.24C0.41 8.06 0.41 11.37 2.75 12.19L19.32 17.99C21.01 18.58 22.84 18.58 24.53 17.99L41.1 12.19Z" stroke="#5A4D47" stroke-opacity="1.000000" stroke-width="3.281250"/>
</svg>
