<svg width="40.000000" height="41.000000" viewBox="0 0 40 41" fill="none" xmlns="http://www.w3.org/2000/svg" xmlns:xlink="http://www.w3.org/1999/xlink">
	<desc>
			Created with Pixso.
	</desc>
	<defs>
		<linearGradient x1="19.624805" y1="1.000000" x2="19.624805" y2="39.000000" id="paint_linear_357_220_0" gradientUnits="userSpaceOnUse">
			<stop stop-color="#5A4D47"/>
			<stop offset="1.000000" stop-color="#D8BFB4"/>
		</linearGradient>
		<linearGradient x1="19.624805" y1="1.000000" x2="19.624805" y2="39.000000" id="paint_linear_357_220_1" gradientUnits="userSpaceOnUse">
			<stop stop-color="#FEA700"/>
			<stop offset="1.000000" stop-color="#F7E651"/>
		</linearGradient>
	</defs>
	<path id="Vector" d="M34.26 13.9L34.26 34.81C34.26 37.12 32.39 39 30.08 39L9.16 39C6.85 39 4.98 37.12 4.98 34.81L4.98 13.9M25.89 39L25.89 28.54C25.89 26.23 24.02 24.36 21.71 24.36L17.53 24.36C15.22 24.36 13.35 26.23 13.35 28.54L13.35 39M38.44 18.08L22.58 2.22C20.94 0.59 18.3 0.59 16.66 2.22L0.8 18.08" stroke="#000000" stroke-opacity="1.000000" stroke-width="2.613974"/>
	<path id="Vector" d="M34.26 13.9L34.26 34.81C34.26 37.12 32.39 39 30.08 39L9.16 39C6.85 39 4.98 37.12 4.98 34.81L4.98 13.9M25.89 39L25.89 28.54C25.89 26.23 24.02 24.36 21.71 24.36L17.53 24.36C15.22 24.36 13.35 26.23 13.35 28.54L13.35 39M38.44 18.08L22.58 2.22C20.94 0.59 18.3 0.59 16.66 2.22L0.8 18.08" stroke="url(#paint_linear_357_220_0)" stroke-opacity="1.000000" stroke-width="2.613974"/>
	<path id="Vector" d="M34.26 13.9L34.26 34.81C34.26 37.12 32.39 39 30.08 39L9.16 39C6.85 39 4.98 37.12 4.98 34.81L4.98 13.9M25.89 39L25.89 28.54C25.89 26.23 24.02 24.36 21.71 24.36L17.53 24.36C15.22 24.36 13.35 26.23 13.35 28.54L13.35 39M38.44 18.08L22.58 2.22C20.94 0.59 18.3 0.59 16.66 2.22L0.8 18.08" stroke="url(#paint_linear_357_220_1)" stroke-opacity="1.000000" stroke-width="2.613974"/>
	<path id="Vector" d="M34.26 13.9L34.26 34.81C34.26 37.12 32.39 39 30.08 39L9.16 39C6.85 39 4.98 37.12 4.98 34.81L4.98 13.9M25.89 39L25.89 28.54C25.89 26.23 24.02 24.36 21.71 24.36L17.53 24.36C15.22 24.36 13.35 26.23 13.35 28.54L13.35 39M38.44 18.08L22.58 2.22C20.94 0.59 18.3 0.59 16.66 2.22L0.8 18.08" stroke="#5A4D47" stroke-opacity="1.000000" stroke-width="2.613974"/>
</svg>
