<svg width="46.000000" height="41.000000" viewBox="0 0 46 41" fill="none" xmlns="http://www.w3.org/2000/svg" xmlns:xlink="http://www.w3.org/1999/xlink">
	<desc>
			Created with Pixso.
	</desc>
	<defs>
		<linearGradient x1="22.374998" y1="1.000000" x2="22.374998" y2="39.000000" id="paint_linear_357_208_0" gradientUnits="userSpaceOnUse">
			<stop stop-color="#5A4D47"/>
			<stop offset="1.000000" stop-color="#D8BFB4"/>
		</linearGradient>
		<linearGradient x1="22.374998" y1="1.000000" x2="22.374998" y2="39.000000" id="paint_linear_357_208_1" gradientUnits="userSpaceOnUse">
			<stop stop-color="#FEA700"/>
			<stop offset="1.000000" stop-color="#F7E651"/>
		</linearGradient>
	</defs>
	<path id="Vector" d="M1 34.25C1 36.87 3.12 39 5.75 39L39 39C41.62 39 43.75 36.87 43.75 34.25L43.75 6.93L43.75 5.75C43.75 3.12 41.62 1 39 1L5.75 1C3.12 1 1 3.12 1 5.75L1 6.93L1 34.25ZM1 6.93L43.75 6.93M28.31 23.56L35.43 23.56M28.31 16.43L37.81 16.43M15.25 23.56C18.84 23.56 21.97 25.56 23.58 28.5C24.84 30.8 22.62 33.06 20 33.06L10.5 33.06C7.87 33.06 5.65 30.8 6.91 28.5C8.52 25.56 11.65 23.56 15.25 23.56ZM15.25 20C13.28 20 11.68 18.4 11.68 16.43C11.68 14.47 13.28 12.87 15.25 12.87C17.21 12.87 18.81 14.47 18.81 16.43C18.81 18.4 17.21 20 15.25 20Z" stroke="url(#paint_linear_357_208_0)" stroke-opacity="1.000000" stroke-width="2.968750"/>
	<path id="Vector" d="M1 34.25C1 36.87 3.12 39 5.75 39L39 39C41.62 39 43.75 36.87 43.75 34.25L43.75 6.93L43.75 5.75C43.75 3.12 41.62 1 39 1L5.75 1C3.12 1 1 3.12 1 5.75L1 6.93L1 34.25ZM1 6.93L43.75 6.93M28.31 23.56L35.43 23.56M28.31 16.43L37.81 16.43M15.25 23.56C18.84 23.56 21.97 25.56 23.58 28.5C24.84 30.8 22.62 33.06 20 33.06L10.5 33.06C7.87 33.06 5.65 30.8 6.91 28.5C8.52 25.56 11.65 23.56 15.25 23.56ZM15.25 20C13.28 20 11.68 18.4 11.68 16.43C11.68 14.47 13.28 12.87 15.25 12.87C17.21 12.87 18.81 14.47 18.81 16.43C18.81 18.4 17.21 20 15.25 20Z" stroke="url(#paint_linear_357_208_1)" stroke-opacity="1.000000" stroke-width="2.968750"/>
	<path id="Vector" d="M1 34.25C1 36.87 3.12 39 5.75 39L39 39C41.62 39 43.75 36.87 43.75 34.25L43.75 6.93L43.75 5.75C43.75 3.12 41.62 1 39 1L5.75 1C3.12 1 1 3.12 1 5.75L1 6.93L1 34.25ZM1 6.93L43.75 6.93M28.31 23.56L35.43 23.56M28.31 16.43L37.81 16.43M15.25 23.56C18.84 23.56 21.97 25.56 23.58 28.5C24.84 30.8 22.62 33.06 20 33.06L10.5 33.06C7.87 33.06 5.65 30.8 6.91 28.5C8.52 25.56 11.65 23.56 15.25 23.56ZM15.25 20C13.28 20 11.68 18.4 11.68 16.43C11.68 14.47 13.28 12.87 15.25 12.87C17.21 12.87 18.81 14.47 18.81 16.43C18.81 18.4 17.21 20 15.25 20Z" stroke="#5A4D47" stroke-opacity="1.000000" stroke-width="2.968750"/>
</svg>
