<svg width="43.000000" height="44.000000" viewBox="0 0 43 44" fill="none" xmlns="http://www.w3.org/2000/svg" xmlns:xlink="http://www.w3.org/1999/xlink">
	<desc>
			Created with Pixso.
	</desc>
	<defs>
		<linearGradient x1="20.981153" y1="1.000000" x2="20.981153" y2="41.000000" id="paint_linear_357_214_0" gradientUnits="userSpaceOnUse">
			<stop stop-color="#5A4D47"/>
			<stop offset="1.000000" stop-color="#D8BFB4"/>
		</linearGradient>
		<linearGradient x1="20.981153" y1="1.000000" x2="20.981153" y2="41.000000" id="paint_linear_357_214_1" gradientUnits="userSpaceOnUse">
			<stop stop-color="#FEA700"/>
			<stop offset="1.000000" stop-color="#F7E651"/>
		</linearGradient>
	</defs>
	<path id="Vector" d="M16.37 10.25L8.36 11.12C6.62 11.31 5.12 12.45 4.48 14.08L2.02 20.32C1.21 22.37 3.4 24.31 5.34 23.26L11.26 20.22M31.08 25.58L30.2 33.6C30.01 35.34 28.88 36.83 27.25 37.48L21 39.94C18.95 40.75 17.01 38.56 18.07 36.62L21.35 30.51M32.75 22.95C29.68 26.01 26.36 28.35 23.22 29.82C17.77 32.36 19.51 28.21 16.51 25.21C13.51 22.21 9.36 23.95 11.91 18.51C13.37 15.37 15.71 12.04 18.78 8.98C26.49 1.26 37.37 -0.37 39.73 1.99C42.09 4.35 40.46 15.23 32.75 22.95ZM1.22 41C1.22 41 3.06 33.48 4.63 31.91C6.2 30.34 8.74 30.34 10.3 31.91C11.87 33.48 11.87 36.02 10.3 37.59C8.74 39.16 1.22 41 1.22 41ZM30.3 13.79C28.99 13.79 27.94 12.73 27.94 11.43C27.94 10.13 28.99 9.07 30.3 9.07C31.6 9.07 32.66 10.13 32.66 11.43C32.66 12.73 31.6 13.79 30.3 13.79Z" stroke="#000000" stroke-opacity="1.000000" stroke-width="2.948814"/>
	<path id="Vector" d="M16.37 10.25L8.36 11.12C6.62 11.31 5.12 12.45 4.48 14.08L2.02 20.32C1.21 22.37 3.4 24.31 5.34 23.26L11.26 20.22M31.08 25.58L30.2 33.6C30.01 35.34 28.88 36.83 27.25 37.48L21 39.94C18.95 40.75 17.01 38.56 18.07 36.62L21.35 30.51M32.75 22.95C29.68 26.01 26.36 28.35 23.22 29.82C17.77 32.36 19.51 28.21 16.51 25.21C13.51 22.21 9.36 23.95 11.91 18.51C13.37 15.37 15.71 12.04 18.78 8.98C26.49 1.26 37.37 -0.37 39.73 1.99C42.09 4.35 40.46 15.23 32.75 22.95ZM1.22 41C1.22 41 3.06 33.48 4.63 31.91C6.2 30.34 8.74 30.34 10.3 31.91C11.87 33.48 11.87 36.02 10.3 37.59C8.74 39.16 1.22 41 1.22 41ZM30.3 13.79C28.99 13.79 27.94 12.73 27.94 11.43C27.94 10.13 28.99 9.07 30.3 9.07C31.6 9.07 32.66 10.13 32.66 11.43C32.66 12.73 31.6 13.79 30.3 13.79Z" stroke="url(#paint_linear_357_214_0)" stroke-opacity="1.000000" stroke-width="2.948814"/>
	<path id="Vector" d="M16.37 10.25L8.36 11.12C6.62 11.31 5.12 12.45 4.48 14.08L2.02 20.32C1.21 22.37 3.4 24.31 5.34 23.26L11.26 20.22M31.08 25.58L30.2 33.6C30.01 35.34 28.88 36.83 27.25 37.48L21 39.94C18.95 40.75 17.01 38.56 18.07 36.62L21.35 30.51M32.75 22.95C29.68 26.01 26.36 28.35 23.22 29.82C17.77 32.36 19.51 28.21 16.51 25.21C13.51 22.21 9.36 23.95 11.91 18.51C13.37 15.37 15.71 12.04 18.78 8.98C26.49 1.26 37.37 -0.37 39.73 1.99C42.09 4.35 40.46 15.23 32.75 22.95ZM1.22 41C1.22 41 3.06 33.48 4.63 31.91C6.2 30.34 8.74 30.34 10.3 31.91C11.87 33.48 11.87 36.02 10.3 37.59C8.74 39.16 1.22 41 1.22 41ZM30.3 13.79C28.99 13.79 27.94 12.73 27.94 11.43C27.94 10.13 28.99 9.07 30.3 9.07C31.6 9.07 32.66 10.13 32.66 11.43C32.66 12.73 31.6 13.79 30.3 13.79Z" stroke="url(#paint_linear_357_214_1)" stroke-opacity="1.000000" stroke-width="2.948814"/>
	<path id="Vector" d="M16.37 10.25L8.36 11.12C6.62 11.31 5.12 12.45 4.48 14.08L2.02 20.32C1.21 22.37 3.4 24.31 5.34 23.26L11.26 20.22M31.08 25.58L30.2 33.6C30.01 35.34 28.88 36.83 27.25 37.48L21 39.94C18.95 40.75 17.01 38.56 18.07 36.62L21.35 30.51M32.75 22.95C29.68 26.01 26.36 28.35 23.22 29.82C17.77 32.36 19.51 28.21 16.51 25.21C13.51 22.21 9.36 23.95 11.91 18.51C13.37 15.37 15.71 12.04 18.78 8.98C26.49 1.26 37.37 -0.37 39.73 1.99C42.09 4.35 40.46 15.23 32.75 22.95ZM1.22 41C1.22 41 3.06 33.48 4.63 31.91C6.2 30.34 8.74 30.34 10.3 31.91C11.87 33.48 11.87 36.02 10.3 37.59C8.74 39.16 1.22 41 1.22 41ZM30.3 13.79C28.99 13.79 27.94 12.73 27.94 11.43C27.94 10.13 28.99 9.07 30.3 9.07C31.6 9.07 32.66 10.13 32.66 11.43C32.66 12.73 31.6 13.79 30.3 13.79Z" stroke="#5A4D47" stroke-opacity="1.000000" stroke-width="2.948814"/>
</svg>
