<svg width="15.000000" height="13.000000" viewBox="0 0 15 13" fill="none" xmlns="http://www.w3.org/2000/svg" xmlns:xlink="http://www.w3.org/1999/xlink">
	<desc>
			Created with Pixso.
	</desc>
	<defs/>
	<path id="telegram" d="M0.53 5.33C4.63 3.55 7.36 2.37 8.73 1.8C12.63 0.18 13.44 -0.1 13.97 -0.11C14.09 -0.11 14.35 -0.09 14.52 0.05C14.66 0.17 14.7 0.32 14.71 0.43C14.73 0.54 14.76 0.79 14.74 0.98C14.53 3.21 13.61 8.6 13.15 11.09C12.95 12.14 12.56 12.49 12.19 12.53C11.37 12.6 10.75 11.99 9.96 11.47C8.72 10.66 8.02 10.16 6.82 9.36C5.44 8.45 6.34 7.95 7.13 7.13C7.33 6.91 10.93 3.64 11 3.34C11.01 3.31 11.02 3.17 10.93 3.1C10.85 3.02 10.73 3.05 10.64 3.07C10.52 3.1 8.54 4.4 4.72 6.99C4.15 7.37 3.65 7.56 3.19 7.55C2.69 7.54 1.72 7.26 1.01 7.03C0.13 6.75 -0.57 6.59 -0.51 6.11C-0.48 5.86 -0.13 5.6 0.53 5.33Z" fill="#5A5050" fill-opacity="1.000000" fill-rule="nonzero"/>
</svg>
