<svg width="16.000000" height="15.000000" viewBox="0 0 16 15" fill="none" xmlns="http://www.w3.org/2000/svg" xmlns:xlink="http://www.w3.org/1999/xlink">
	<desc>
			Created with Pixso.
	</desc>
	<defs/>
	<path id="whatsapp" d="M12.95 1.63C11.51 0.2 9.6 -0.57 7.59 -0.57C3.38 -0.57 -0.07 2.88 -0.07 7.09C-0.07 8.43 0.31 9.77 0.98 10.92L-0.07 14.75L3.95 13.69C5.1 14.27 6.34 14.65 7.59 14.65C11.8 14.65 15.24 11.2 15.24 6.99C15.24 4.98 14.38 3.07 12.95 1.63ZM7.59 13.41C6.44 13.41 5.29 13.12 4.33 12.54L4.14 12.45L1.75 13.12L2.42 10.82L2.23 10.53C1.56 9.48 1.27 8.33 1.27 7.18C1.27 3.74 4.14 0.87 7.59 0.87C9.31 0.87 10.84 1.54 12.09 2.69C13.33 3.93 13.9 5.46 13.9 7.18C13.9 10.53 11.13 13.41 7.59 13.41ZM11.03 8.62C10.84 8.52 9.88 8.05 9.69 8.05C9.5 7.95 9.41 7.95 9.31 8.14C9.21 8.33 8.83 8.72 8.74 8.91C8.64 9 8.54 9 8.35 9C8.16 8.91 7.59 8.72 6.82 8.05C6.25 7.57 5.86 6.9 5.77 6.71C5.67 6.51 5.77 6.42 5.86 6.32C5.96 6.23 6.06 6.13 6.15 6.04C6.25 5.94 6.25 5.84 6.34 5.75C6.44 5.65 6.34 5.56 6.34 5.46C6.34 5.37 5.96 4.41 5.77 4.03C5.67 3.74 5.48 3.74 5.39 3.74C5.29 3.74 5.19 3.74 5 3.74C4.91 3.74 4.72 3.74 4.52 3.93C4.33 4.12 3.85 4.6 3.85 5.56C3.85 6.51 4.52 7.38 4.62 7.57C4.72 7.66 5.96 9.67 7.87 10.44C9.5 11.11 9.79 10.92 10.17 10.92C10.55 10.92 11.32 10.44 11.42 10.06C11.61 9.58 11.61 9.19 11.51 9.19C11.42 8.72 11.22 8.72 11.03 8.62Z" fill="#5A5050" fill-opacity="1.000000" fill-rule="evenodd"/>
</svg>
