<svg width="220" height="86" viewBox="0 0 220 86" fill="none" xmlns="http://www.w3.org/2000/svg">
<path fill-rule="evenodd" clip-rule="evenodd" d="M178.343 0.00700615C190.362 0.0408348 193.303 0.0915779 194.909 0.311464C195.974 0.446779 197.343 0.649751 197.952 0.768152C198.561 0.869638 199.811 1.19101 200.741 1.47855C201.671 1.74918 203.192 2.37501 204.122 2.8317C205.052 3.3053 206.421 4.08336 207.165 4.55696C207.909 5.04748 209.193 6.0116 210.039 6.722C210.884 7.4324 211.746 8.22738 211.983 8.48109C212.219 8.75172 212.862 9.51287 213.42 10.1556C213.961 10.7984 214.89 12.0669 215.465 12.9465C216.057 13.826 216.868 15.2807 217.274 16.1602C217.696 17.0397 218.237 18.4098 218.474 19.2048C218.728 19.9998 219.083 21.4713 219.252 22.5031C219.421 23.5349 219.657 25.5477 219.776 26.9854C219.928 28.7445 219.995 33.3621 219.995 41.1089C220.012 47.4348 219.979 53.71 219.945 55.0632C219.911 56.4163 219.81 57.6173 219.742 57.7187C219.657 57.8371 219.624 58.0401 219.657 58.1416C219.691 58.26 219.641 58.4968 219.573 58.649C219.488 58.8351 219.488 59.1395 219.607 59.4102C219.725 59.7485 219.725 59.9007 219.607 59.9176C219.505 59.9514 219.455 60.0867 219.505 60.2221C219.556 60.3574 219.505 60.4758 219.421 60.4758C219.336 60.4758 219.269 60.7295 219.269 61.017C219.286 61.3215 219.167 62.3702 218.998 63.3512C218.846 64.3322 218.525 65.77 218.288 66.5649C218.068 67.3599 217.494 68.7976 217.037 69.7787C216.564 70.7597 215.634 72.4004 214.941 73.4152C214.265 74.4301 213.098 75.9355 212.372 76.7474C211.645 77.5593 210.478 78.6925 209.785 79.2676C209.092 79.8596 207.909 80.7222 207.165 81.2128C206.421 81.6864 205.018 82.4813 204.038 82.9718C203.057 83.4624 201.722 84.0544 201.079 84.2743C200.437 84.4941 199.102 84.8155 198.121 84.9846C197.141 85.1707 195.433 85.4075 194.318 85.5428C192.779 85.712 188.621 85.7627 176.906 85.7627C165.191 85.7627 161.033 85.712 159.494 85.5428C158.378 85.4075 156.671 85.1707 155.691 84.9846C154.71 84.8155 153.392 84.4941 152.732 84.2743C152.073 84.0544 150.755 83.4793 149.774 82.9888C148.794 82.4982 147.272 81.6187 146.393 81.0267C145.514 80.4347 144.128 79.3522 143.317 78.6249C142.505 77.8975 141.406 76.7812 140.849 76.1215C140.308 75.4619 139.412 74.2948 138.888 73.4998C138.364 72.7048 137.552 71.3348 137.096 70.4552C136.639 69.5757 136.048 68.1718 135.76 67.3261C135.473 66.4804 135.101 64.9073 134.898 63.8079C134.712 62.7254 134.56 61.5752 134.56 61.2707C134.577 60.9832 134.459 60.6111 134.306 60.4758C134.154 60.3405 134.053 59.9853 134.07 59.7146C134.07 59.444 134.019 57.9555 133.935 56.4163C133.867 54.8771 133.799 48.1452 133.816 41.4471C133.816 33.1422 133.884 28.4908 134.036 26.8162C134.154 25.4631 134.391 23.4841 134.577 22.4185C134.763 21.3529 135.185 19.6784 135.507 18.6974C135.828 17.7163 136.436 16.2786 136.842 15.4836C137.248 14.6887 138.025 13.4032 138.549 12.6082C139.074 11.8132 140.122 10.4601 140.882 9.58052C141.626 8.70098 142.928 7.41549 143.773 6.722C144.618 6.0116 145.903 5.04748 146.647 4.55696C147.391 4.08336 148.675 3.33913 149.521 2.91627C150.366 2.51033 151.718 1.91833 152.563 1.63078C153.409 1.32632 154.879 0.954209 155.86 0.768152C156.84 0.599008 158.514 0.379122 159.579 0.277636C160.644 0.17615 162.013 0.0577492 162.622 0.0239205C163.23 0.00700615 170.296 -0.00990819 178.343 0.00700615ZM0 29.1842H10.8189C20.2178 29.1842 21.7223 29.2181 22.2802 29.4549C22.6183 29.5902 23.1254 29.9116 23.3959 30.1653C23.6494 30.419 24.0382 30.8926 24.258 31.214C24.4608 31.5353 24.7144 32.2119 24.8327 32.6855C24.9342 33.176 25.0187 33.7511 25.0187 33.9541C25.0187 34.1909 24.613 34.7491 24.0382 35.358C23.5142 35.9331 21.773 37.7767 20.2009 39.4851C18.6288 41.1765 16.5664 43.3754 15.6536 44.3733C14.7238 45.3713 13.101 47.1304 12.0191 48.2805C10.9372 49.4307 9.77082 50.5471 9.43272 50.7669C9.04392 51.0207 8.79035 51.3082 8.79035 51.5112C8.79035 51.6972 8.84107 51.8664 8.92559 51.8833C8.99321 51.8833 12.0529 51.9171 15.7212 51.934C19.3895 51.9509 22.7028 52.0186 23.0747 52.0863C23.4466 52.1708 24.0213 52.3569 24.3425 52.526C24.6637 52.6952 25.1032 53.0166 25.2892 53.2364C25.492 53.4394 25.8132 53.9299 25.9823 54.302C26.1682 54.6742 26.3711 55.3338 26.5401 56.5855H3.97256L3.14424 56.0442C2.68782 55.7398 2.16378 55.2154 2.01164 54.894C1.84259 54.5727 1.57212 53.7946 1.40308 53.1688C1.1157 52.1032 1.1157 52.0355 1.38617 51.7311C1.55522 51.5619 1.69045 51.3082 1.69045 51.1729C1.69045 51.0376 2.95829 49.5829 4.51351 47.9592C6.05182 46.3354 8.40155 43.849 9.7201 42.462C11.0387 41.0581 13.2701 38.707 17.2426 34.5123L10.3625 34.4277C3.93875 34.3431 3.41471 34.3262 2.72163 34.0048C2.29902 33.8188 1.63974 33.2775 1.23403 32.8208C0.828322 32.3472 0.388804 31.6368 0.236663 31.214C0.101427 30.7911 0 30.1653 0 29.8101V29.1842ZM38.2887 29.2012C39.7933 29.1842 40.6554 29.2688 41.6697 29.5225C42.4135 29.7255 43.6644 30.1822 44.4589 30.5712C45.2534 30.9433 46.2001 31.4846 46.572 31.7721C46.9439 32.0597 47.6539 32.6855 48.1441 33.1591C48.6343 33.6327 49.3612 34.5123 49.7669 35.1043C50.1557 35.7132 50.5952 36.4067 50.7474 36.6266C50.8826 36.8634 51.17 37.5568 51.3898 38.1488C51.5926 38.7578 51.8631 39.6711 51.9814 40.1786C52.1167 40.7029 52.2181 41.9715 52.2181 43.054C52.2181 44.1534 52.1167 45.422 51.9814 45.9294C51.8631 46.4538 51.6095 47.3164 51.4236 47.8746C51.2376 48.4497 50.8995 49.2108 50.6967 49.566C50.4769 49.9381 50.1388 50.4287 49.9191 50.6316C49.6993 50.8346 49.5303 51.0545 49.5303 51.0883C49.5303 51.1391 49.1246 51.6127 48.6343 52.137C48.161 52.6444 47.3327 53.4056 46.8255 53.7946C46.3184 54.2006 45.2534 54.8433 44.4589 55.2323C43.6644 55.6383 42.4473 56.095 41.7542 56.281C40.8413 56.5009 39.8947 56.6024 38.3733 56.5855C37.1054 56.5855 35.8376 56.484 35.1952 56.3318C34.6205 56.1964 33.6738 55.892 33.0822 55.6383C32.5074 55.4015 31.4931 54.8602 30.8508 54.4374C30.1915 54.0145 29.2279 53.2364 28.7039 52.7121C28.1629 52.2047 27.6896 51.7987 27.6389 51.8156C27.5882 51.8325 27.3346 51.5788 27.081 51.2236C26.8106 50.8684 26.3203 50.0565 25.9992 49.3969C25.6611 48.7541 25.2723 47.8746 25.1201 47.4517C24.9849 47.0458 24.782 46.1662 24.6806 45.5066C24.5961 44.8638 24.5116 43.7644 24.5116 43.054C24.5116 42.3605 24.5961 41.2611 24.6806 40.6014C24.782 39.9587 24.9849 39.0791 25.1201 38.6563C25.2723 38.2503 25.6611 37.3708 25.9823 36.7111C26.3203 36.0684 27.0134 35.0028 27.5375 34.3769C28.0615 33.7342 28.856 32.8716 29.3294 32.4825C29.7858 32.0935 30.5972 31.5015 31.1043 31.1971C31.6115 30.8757 32.4567 30.4359 32.9638 30.216C33.471 29.9961 34.4176 29.6917 35.0769 29.5225C35.8883 29.3026 36.9026 29.2012 38.2887 29.2012ZM34.4345 35.3072C34.0457 35.4933 33.3864 35.9331 32.9638 36.2714C32.5412 36.6096 32.1186 36.9648 32.0341 37.0494C31.9326 37.1509 31.6622 37.4892 31.4255 37.8106C31.1888 38.1488 30.8339 38.7239 30.631 39.0791C30.445 39.4513 30.1577 40.1955 30.0055 40.7367C29.8703 41.278 29.752 42.3267 29.752 43.054C29.752 43.7982 29.8703 44.8469 30.0055 45.3882C30.1577 45.9294 30.445 46.6737 30.631 47.0289C30.8339 47.401 31.1888 47.9761 31.4255 48.2974C31.6622 48.6357 32.1693 49.1601 32.5412 49.4815C32.9131 49.8197 33.4033 50.2764 33.64 50.5132C33.8767 50.75 34.3331 51.0714 34.6543 51.2236C34.9755 51.3759 35.7024 51.6127 36.2602 51.7649C36.8181 51.9171 37.7816 52.0355 38.4071 52.0355C39.0495 52.0355 39.9792 51.9171 40.4863 51.7649C40.9935 51.6296 41.4161 51.4604 41.3992 51.3928C41.3992 51.3251 41.6528 51.156 41.957 51.0207C42.2613 50.8684 42.5487 50.7669 42.5994 50.75C42.6501 50.75 42.8699 50.5978 43.1065 50.4117C43.3432 50.2257 44.0194 49.5829 44.6279 48.974C45.3886 48.196 45.8789 47.5363 46.2508 46.6906C46.5551 46.0478 46.8762 44.9653 46.9777 44.2888C47.1129 43.3754 47.1129 42.7495 46.9608 41.8362C46.8593 41.1596 46.5382 40.0771 46.2339 39.4174C45.9127 38.7408 45.3041 37.8275 44.7801 37.2524C44.273 36.7111 43.4108 35.9838 42.853 35.6455C42.2951 35.3242 41.3823 34.9182 40.8244 34.7491C40.1652 34.5461 39.2861 34.4446 38.3733 34.4446C37.5788 34.4615 36.5307 34.563 36.0404 34.6983C35.5671 34.8336 34.8402 35.1043 34.4345 35.3072ZM67.821 29.2012C69.0888 29.2012 70.2214 29.2857 70.9483 29.4549C71.5907 29.6071 72.5204 29.8946 73.0275 30.0807C73.5347 30.2837 74.3292 30.6558 74.8025 30.9264C75.2589 31.214 75.952 31.6537 76.3239 31.9413C76.6958 32.2119 77.5411 33.0238 78.2172 33.7342C79.0963 34.6645 79.671 35.4933 80.2965 36.7111C80.9051 37.912 81.2601 38.8592 81.4798 39.9249C81.6658 40.8044 81.801 42.1406 81.801 43.054C81.801 43.9843 81.6658 45.3205 81.4798 46.1832C81.277 47.1473 80.8882 48.2467 80.4486 49.1432C79.9922 50.0565 79.4006 50.9023 78.8596 51.4266C78.4032 51.8833 78.0144 52.3738 78.0144 52.5091C78.0144 52.6444 77.8622 52.8305 77.6763 52.932C77.4903 53.0504 76.848 53.4732 76.2394 53.913C75.6308 54.3528 74.5997 54.9786 73.9573 55.3C73.298 55.6383 72.1654 56.0611 71.4216 56.2472C70.4243 56.5009 69.4945 56.5855 67.9562 56.5855C66.3672 56.6024 65.505 56.5178 64.4908 56.2472C63.747 56.0611 62.5298 55.6044 61.786 55.2154C61.0422 54.8433 60.0111 54.2006 59.5039 53.8115C58.9968 53.4225 58.2699 52.7459 57.898 52.3061C57.5261 51.8833 57.1204 51.5281 57.0021 51.5281C56.9006 51.5281 56.7992 51.4604 56.7992 51.3928C56.7992 51.3251 56.6133 51.0376 56.3766 50.75C56.1568 50.4794 55.7342 49.8028 55.4468 49.2277C55.1764 48.6696 54.8214 47.8069 54.6861 47.2826C54.5509 46.7752 54.348 45.9802 54.2635 45.5066C54.179 45.0499 54.0776 44.1703 54.0269 43.5614C53.9931 42.9694 54.0607 41.9038 54.179 41.1934C54.2804 40.4999 54.5002 39.5189 54.6354 38.9946C54.7707 38.4871 55.0242 37.7598 55.1933 37.3877C55.3623 37.0325 55.8526 36.1868 56.2583 35.5271C56.6809 34.8844 57.374 33.9879 57.7966 33.5312C58.2192 33.0745 58.9968 32.3811 59.5039 31.992C60.0111 31.5861 60.8901 31.0279 61.4479 30.7404C62.0058 30.4528 62.682 30.1314 62.9694 30.03C63.2398 29.9116 64.0005 29.6917 64.6598 29.5225C65.4374 29.3196 66.5193 29.2181 67.821 29.2012ZM63.037 35.9331C62.4453 36.339 61.6677 37.0325 61.3127 37.4554C60.9577 37.8951 60.5689 38.4364 60.4337 38.6563C60.3153 38.8931 60.1294 39.2821 60.028 39.502C59.9265 39.7388 59.7237 40.2801 59.5885 40.686C59.4194 41.1765 59.3349 42.0561 59.3349 43.054C59.3349 44.0858 59.4363 44.9653 59.6054 45.5066C59.7575 45.9802 59.9604 46.4369 60.028 46.5214C60.1125 46.6229 60.1801 46.7921 60.1801 46.9105C60.1801 47.0289 60.3999 47.4517 60.6703 47.8408C60.9408 48.2298 61.6001 49.0079 62.141 49.5322C62.6989 50.0735 63.206 50.5132 63.3074 50.5132C63.392 50.5132 63.6286 50.6824 63.8315 50.8853C64.0174 51.0883 64.7443 51.4435 65.4374 51.6465C66.4179 51.9509 66.9757 52.0186 68.0407 51.9679C68.7845 51.934 69.6128 51.8495 69.9002 51.7818C70.1707 51.7141 70.4581 51.5788 70.5088 51.4604C70.5764 51.3589 70.7116 51.3251 70.8131 51.3928C70.9145 51.4604 71.2526 51.3928 71.54 51.2405C71.8442 51.0883 72.6556 50.4625 73.3487 49.8536C74.0418 49.2277 74.8363 48.382 75.1068 47.9592C75.3942 47.5532 75.8168 46.7582 76.0366 46.1832C76.4085 45.3205 76.4592 44.8977 76.4761 43.1386C76.493 41.3964 76.4423 40.9735 76.1042 40.094C75.8844 39.5358 75.5463 38.8254 75.3435 38.4871C75.1406 38.1658 74.6673 37.5738 74.2954 37.1678C73.9235 36.7619 73.2811 36.1868 72.8585 35.8992C72.4359 35.6117 71.6414 35.2057 71.0835 34.9689C70.289 34.6476 69.6636 34.5461 68.2098 34.4953C66.5869 34.4277 66.1981 34.4784 65.2346 34.8167C64.626 35.0197 63.6286 35.5271 63.037 35.9331ZM83.4914 29.1842L83.9648 29.2012C84.2183 29.2012 84.8945 29.3196 85.4524 29.4718C86.0102 29.6071 86.9569 29.9961 88.6642 30.9095L89.8475 30.3175C90.4899 29.9961 91.5211 29.6071 92.1297 29.4718C92.7382 29.3196 93.8708 29.2012 94.6653 29.2012C95.4599 29.2012 96.5925 29.3196 97.201 29.4718C97.8096 29.624 98.7562 29.9792 99.3141 30.2498C99.8719 30.5374 100.835 31.1801 101.461 31.6707C102.103 32.1612 102.61 32.6517 102.61 32.7363C102.61 32.8377 102.999 32.5502 103.456 32.1104C103.929 31.6707 104.859 30.9772 105.535 30.5881C106.194 30.1991 107.327 29.7255 108.02 29.5394C108.899 29.3026 109.812 29.2012 110.978 29.2012C111.908 29.2012 113.091 29.3026 113.598 29.438C114.106 29.5733 114.9 29.8439 115.373 30.0469C115.83 30.2498 116.675 30.7404 117.233 31.1294C117.791 31.5184 118.67 32.3134 119.177 32.8716C119.684 33.4297 120.428 34.5292 120.817 35.3072C121.205 36.0853 121.611 37.0325 121.713 37.3877C121.831 37.8613 121.865 40.3139 121.814 44.9992C121.763 48.8218 121.679 52.9827 121.544 56.5855L120.901 56.6024C120.563 56.6024 120.005 56.5178 119.684 56.4163C119.363 56.3318 118.856 56.095 118.585 55.892C118.298 55.7059 117.892 55.2662 117.655 54.9279C117.351 54.4712 117.216 53.9468 117.115 52.8643C117.03 52.0863 116.929 50.1749 116.895 48.6357C116.844 47.1134 116.793 44.2211 116.76 42.2083C116.709 38.7578 116.692 38.5379 116.303 37.8106C116.083 37.4046 115.593 36.7111 115.187 36.2883C114.799 35.8823 114.072 35.3072 113.582 35.0366C112.804 34.6137 112.449 34.5292 111.147 34.4784C109.727 34.4108 109.558 34.4446 108.612 34.9182C108.054 35.2057 107.276 35.7639 106.904 36.153C106.515 36.5589 106.059 37.2355 105.89 37.6414C105.603 38.3349 105.552 39.0453 105.467 44.5763C105.417 47.9761 105.332 50.9023 105.281 51.0883C105.214 51.2913 105.163 52.5937 105.146 56.5855H104.419C104.03 56.5855 103.439 56.5178 103.118 56.4332C102.796 56.3487 102.255 56.095 101.934 55.8751C101.613 55.6721 101.174 55.1478 100.954 54.7249C100.65 54.1329 100.582 53.6931 100.582 52.6106C100.582 51.8833 100.514 51.1898 100.43 51.0883C100.328 51.0037 100.244 48.4666 100.159 38.7408L99.4831 37.5061C99.1112 36.8295 98.5365 36.0515 98.2153 35.7978C97.8941 35.5271 97.2855 35.1381 96.8629 34.9351C96.3051 34.6476 95.7303 34.5123 94.7499 34.4615C93.6342 34.4108 93.2116 34.4784 92.3832 34.7829C91.724 35.0366 91.0985 35.4426 90.5914 35.95C90.1687 36.3728 89.594 37.134 88.8333 38.5717L88.715 44.4072C88.6473 47.6209 88.5459 50.9361 88.4952 51.7649C88.4445 52.6106 88.36 53.6255 88.3261 54.0145C88.2754 54.4712 88.0726 54.9279 87.7683 55.2662C87.5147 55.5537 87.0076 55.9427 86.6357 56.1288C86.2638 56.3148 85.4862 56.5178 83.8633 56.67L83.7619 53.9638C83.7112 52.4753 83.6267 46.3016 83.576 40.2293L83.4914 29.1842Z" fill="white"/>
<path d="M151.786 29.2012C152.022 28.9813 152.462 28.6937 152.732 28.5753C153.155 28.3893 155.741 28.3555 167.186 28.3893C179.205 28.44 181.25 28.4739 181.977 28.6937C182.45 28.846 183.245 29.1843 183.752 29.438C184.259 29.6917 185.189 30.419 185.798 31.0279C186.508 31.7383 187.099 32.5502 187.437 33.2437C187.742 33.8526 188.08 34.7998 188.181 35.358C188.35 36.1022 188.401 38.9269 188.401 45.8449C188.401 53.9469 188.367 55.3846 188.147 55.7567C188.012 56.0104 187.64 56.484 187.353 56.8223C186.93 57.279 186.558 57.482 185.831 57.668C185.037 57.8541 182.45 57.9048 172.426 57.9048C165.597 57.9217 159.917 57.8541 159.832 57.7864C159.748 57.7018 159.055 57.5834 158.311 57.5158C157.567 57.4481 156.637 57.279 156.248 57.1268C155.86 56.9576 155.065 56.5009 154.49 56.0781C153.916 55.6552 153.104 54.8941 152.698 54.3866C152.276 53.8792 151.769 53.0842 151.549 52.6106C151.346 52.1539 151.059 51.3082 150.94 50.75C150.754 49.9551 150.704 47.6209 150.704 40.2632C150.704 31.2309 150.721 30.7573 151.025 30.1991C151.211 29.8777 151.549 29.4211 151.786 29.2012Z" fill="#D2B387"/>
<path d="M195.078 32.9223C196.887 31.4 198.814 29.827 199.372 29.4211C200.183 28.8121 200.488 28.6768 201.096 28.6768C201.705 28.6768 201.958 28.7783 203.108 29.827L203.192 42.5804C203.26 53.8961 203.243 55.3846 203.006 55.9935C202.871 56.3656 202.499 56.8392 202.212 57.0591C201.874 57.279 201.434 57.4312 201.045 57.4312C200.69 57.4143 200.251 57.3297 200.048 57.2113C199.862 57.0929 198.121 55.6721 196.177 54.0483C194.233 52.4246 192.373 50.8177 192.052 50.4963C191.731 50.175 191.275 49.4815 190.598 48.0438V38.0305L191.19 36.8634C191.748 35.7809 192.001 35.5102 195.078 32.9223Z" fill="#D2B387"/>
</svg>
